<svg xmlns="http://www.w3.org/2000/svg" viewBox="0 0 100 60"><g fill="none" fill-rule="evenodd"><path fill="#FFF" d="M0 0h100v60H0z"/><g fill-rule="nonzero"><path fill="#097A44" d="M76.765 37.755l4.117-15.243L85 30.37z"/><path fill="#F46F20" d="M74.212 37.797l4.117-15.223 4.118 7.858z"/><path fill="#302F82" d="M53.438 22.183a4.12 4.12 0 00-3.212-1.152H44.05L40.035 35.04h3.603l1.36-4.752h2.531a7.004 7.004 0 003.912-1.029 6.027 6.027 0 002.306-3.538 3.639 3.639 0 00-.309-3.538zm-6.609 1.934h2.306c.404-.048.81.062 1.133.308.226.226.144.72 0 1.09-.117.509-.408.96-.824 1.276a2.49 2.49 0 01-1.441.411h-2.12l.946-3.085zM29.7 23.829a3.372 3.372 0 00-.412-1.255 2.676 2.676 0 00-1.194-1.09 5.666 5.666 0 00-2.223-.37h-6.753L15 34.998h3.562l1.482-5.184h2.574c.967 0 1.194.206 1.235.267.041.062.185.309 0 1.337l-.33 1.235a6.886 6.886 0 00-.226 1.213V35h3.685l.247-.885-.226-.164s-.144-.103-.124-.412a6.85 6.85 0 01.268-1.152l.206-.864c.27-.73.34-1.517.206-2.283a1.81 1.81 0 00-.535-.844 4.117 4.117 0 001.4-1.11c.5-.604.871-1.305 1.09-2.058.145-.452.209-.925.186-1.398zm-3.83 1.707a1.728 1.728 0 01-1.029 1.234c-.424.141-.87.204-1.317.185h-2.636l.783-2.736h2.944c.373-.029.748.035 1.09.186.104 0 .433.144.166 1.028v.103zM35.96 30a4.339 4.339 0 01-.618 1.378 2.06 2.06 0 01-1.791.885c-.7 0-.741-.288-.782-.412-.03-.362.02-.727.144-1.07l1.832-6.397h-3.48l-1.77 6.171a6.167 6.167 0 00-.309 2.716c.165.864.824 1.872 2.903 1.872a5.022 5.022 0 001.503-.206 5.17 5.17 0 001.235-.596l-.164.617h3.335l3.027-10.553h-3.377L35.96 30zm26.62 2.263l1.297-4.485c.495-1.707-.144-2.489-.761-2.86a5.665 5.665 0 00-2.82-.678 5.912 5.912 0 00-4.119 1.399 5.656 5.656 0 00-1.42 2.263l-.185.535h3.314v-.227c.12-.285.295-.543.515-.76.33-.252.74-.376 1.153-.35.325-.03.652.026.947.164v.37c0 .124 0 .309-.515.473-.32.107-.652.176-.988.206l-.906.103a8.24 8.24 0 00-2.573.658 4.401 4.401 0 00-2.368 2.86 2.57 2.57 0 00.35 2.51 2.903 2.903 0 002.306.905 5.006 5.006 0 002.203-.515l.823-.473v.679h3.52l.269-.987-.268-.144a1.254 1.254 0 010-.453c0-.514.144-.885.226-1.193zm-6.011-.206c.1-.364.356-.666.7-.823a4.47 4.47 0 011.173-.308l.597-.103.618-.144v.144a2.55 2.55 0 01-1.05 1.543 2.966 2.966 0 01-1.482.432.7.7 0 01-.515-.165 1.13 1.13 0 01-.041-.576zm16.285-7.57l-3.48 6.171v-6.171h-3.705l.803 10.553-.247.39c-.12.204-.281.38-.474.515a1.33 1.33 0 01-.494.165h-1.4l-.803 2.818h1.709a4.12 4.12 0 002.656-.7c1-1.07 1.877-2.25 2.614-3.517l6.527-10.286-3.706.062z"/></g></g></svg>